# Blender 3.5.0
# www.blender.org
mtllib mug.mtl
o mug
v -1.937137 12.583625 11.829628
v -1.937137 14.183807 11.333763
v -1.937137 11.831226 7.062570
v -1.937137 14.183807 7.062570
v 1.937137 12.583625 11.829628
v 1.937137 14.183807 11.333763
v 1.937137 11.831226 7.062570
v 1.937137 14.183807 7.062570
v -1.937137 11.831226 12.765194
v -1.937137 13.047447 12.899006
v 1.937137 13.047447 12.899006
v 1.937137 11.831226 12.765194
v -1.937137 0.508379 11.333763
v 1.937137 0.508379 11.333763
v -1.937137 0.508379 12.765194
v 1.937137 0.508379 12.765194
v 1.937137 6.169803 12.765194
v 1.937137 1.619486 10.760582
v -1.937137 1.619486 10.760582
v -1.937137 6.169803 12.765194
v -0.000000 -0.039447 -7.982863
v -0.000000 3.146309 -6.413499
v -0.000000 14.282043 -7.982863
v 3.246924 -0.039447 -7.292707
v 2.608605 3.146309 -5.859022
v 3.246924 14.282043 -7.292707
v 5.932424 -0.039447 -5.341577
v 4.766159 3.146309 -4.291467
v 5.932424 14.282043 -5.341577
v 7.592155 -0.039447 -2.466839
v 6.099600 3.146309 -1.981878
v 7.592155 14.282043 -2.466839
v 7.939133 -0.039447 0.834438
v 6.378366 3.146309 0.670394
v 7.939133 14.282043 0.834438
v 6.913363 -0.039447 3.991434
v 5.554253 3.146309 3.206751
v 6.913363 14.282043 3.991434
v 4.692210 -0.039447 6.458274
v 3.769760 3.146309 5.188631
v 4.692210 14.282043 6.458274
v 1.333442 3.146309 6.273351
v 1.659731 -0.039447 7.808421
v 1.659731 14.282043 7.808421
v -1.659731 -0.039447 7.808421
v -1.333442 3.146309 6.273351
v -1.659731 14.282043 7.808421
v -4.692210 -0.039447 6.458274
v -3.769760 3.146309 5.188631
v -4.692210 14.282043 6.458274
v -6.913363 -0.039447 3.991434
v -5.554253 3.146309 3.206751
v -6.913363 14.282043 3.991434
v -6.378366 3.146309 0.670394
v -7.939133 -0.039447 0.834438
v -7.939133 14.282043 0.834438
v -6.099600 3.146309 -1.981878
v -7.592155 -0.039447 -2.466839
v -7.592155 14.282043 -2.466839
v -5.932424 -0.039447 -5.341577
v -4.766159 3.146309 -4.291467
v -5.932424 14.282043 -5.341577
v -3.246924 -0.039447 -7.292707
v -2.608605 3.146309 -5.859022
v -3.246924 14.282043 -7.292707
v -6.099600 14.282043 -1.981878
v -4.766159 14.282043 -4.291467
v -2.608605 14.282043 -5.859022
v -5.554253 14.282043 3.206751
v -1.333442 14.282043 6.273351
v -3.769760 14.282043 5.188631
v 3.769760 14.282043 5.188631
v 6.378366 14.282043 0.670394
v 5.554253 14.282043 3.206751
v 4.766159 14.282043 -4.291467
v 2.608605 14.282043 -5.859022
v -0.000000 14.282043 -6.413499
v -6.378366 14.282043 0.670394
v 6.099600 14.282043 -1.981878
v 1.333442 14.282043 6.273351
vn -1.0000 -0.0000 -0.0000
vn -0.0000 -0.0000 -1.0000
vn 1.0000 -0.0000 -0.0000
vn -0.0000 -0.9878 0.1559
vn -0.0000 1.0000 -0.0000
vn -0.0000 -0.1094 0.9940
vn -0.0000 0.8092 0.5875
vn -0.0000 -1.0000 -0.0000
vn -0.0000 -0.0000 1.0000
vn -0.0000 -0.4585 -0.8887
vn -0.0000 0.0970 -0.9953
vn 0.2079 -0.0000 -0.9781
vn 0.5878 -0.0000 -0.8090
vn 0.8660 -0.0000 -0.5000
vn 0.9945 -0.0000 -0.1045
vn 0.9511 -0.0000 0.3090
vn 0.7431 -0.0000 0.6691
vn 0.4067 -0.0000 0.9135
vn -0.4067 -0.0000 0.9135
vn -0.7431 -0.0000 0.6691
vn -0.9511 -0.0000 0.3090
vn -0.9945 -0.0000 -0.1045
vn -0.8660 -0.0000 -0.5000
vn -0.5878 -0.0000 -0.8090
vn -0.2079 -0.0000 -0.9781
vn -0.2079 -0.0000 0.9781
vn -0.5878 -0.0000 0.8090
vn -0.8660 -0.0000 0.5000
vn -0.9945 -0.0000 0.1045
vn -0.9511 -0.0000 -0.3090
vn -0.7431 -0.0000 -0.6691
vn -0.4067 -0.0000 -0.9135
vn 0.4067 -0.0000 -0.9135
vn 0.7431 -0.0000 -0.6691
vn 0.9511 -0.0000 -0.3090
vn 0.9945 -0.0000 0.1045
vn 0.8660 -0.0000 0.5000
vn 0.5878 -0.0000 0.8090
vn 0.2079 -0.0000 0.9781
vt 0.125000 0.750000
vt 0.375000 0.000000
vt 0.625000 0.000000
vt 0.875000 0.750000
vt 0.375000 0.250000
vt 0.125000 0.500000
vt 0.625000 0.250000
vt 0.875000 0.500000
vt 0.375000 0.750000
vt 0.625000 0.750000
vt 0.375000 0.500000
vt 0.625000 0.500000
vt 0.375000 1.000000
vt 0.375000 0.000000
vt 0.625000 0.000000
vt 0.625000 1.000000
vt 0.875000 0.750000
vt 0.625000 0.750000
vt 0.375000 0.750000
vt 0.375000 0.000000
vt 0.125000 0.750000
vt 0.375000 0.750000
vt 0.125000 0.750000
vt 0.375000 0.000000
vt 0.375000 1.000000
vt 0.375000 0.750000
vt 0.375000 0.750000
vt 0.375000 0.750000
vt 0.125000 0.750000
vt 0.375000 0.000000
vt 0.375000 1.000000
vt 0.375000 0.000000
vt 1.000000 0.500000
vt 0.000000 0.500000
vt 0.750000 0.490000
vt 1.000000 0.500000
vt 0.000000 0.500000
vt 0.750000 0.490000
vt 1.000000 1.000000
vt 0.250000 0.490000
vt 0.000000 1.000000
vt 0.933333 0.500000
vt 0.847617 0.469251
vt 0.933333 0.500000
vt 0.847617 0.469251
vt 0.933333 1.000000
vt 0.347617 0.469251
vt 0.866667 0.500000
vt 0.928355 0.410591
vt 0.866667 0.500000
vt 0.928355 0.410591
vt 0.866667 1.000000
vt 0.428355 0.410591
vt 0.800000 0.500000
vt 0.978254 0.324164
vt 0.800000 0.500000
vt 0.978254 0.324164
vt 0.800000 1.000000
vt 0.478254 0.324164
vt 0.733333 0.500000
vt 0.988685 0.224913
vt 0.733333 0.500000
vt 0.988685 0.224913
vt 0.733333 1.000000
vt 0.488685 0.224913
vt 0.666667 0.500000
vt 0.957846 0.130000
vt 0.666667 0.500000
vt 0.957846 0.130000
vt 0.666667 1.000000
vt 0.457846 0.130000
vt 0.600000 0.500000
vt 0.891068 0.055836
vt 0.600000 0.500000
vt 0.891068 0.055836
vt 0.600000 1.000000
vt 0.391068 0.055836
vt 0.533333 0.500000
vt 0.799899 0.015245
vt 0.533333 0.500000
vt 0.799899 0.015245
vt 0.533333 1.000000
vt 0.299899 0.015245
vt 0.466667 0.500000
vt 0.700101 0.015245
vt 0.466667 0.500000
vt 0.700101 0.015245
vt 0.466667 1.000000
vt 0.200101 0.015245
vt 0.400000 0.500000
vt 0.608932 0.055836
vt 0.400000 0.500000
vt 0.608932 0.055836
vt 0.400000 1.000000
vt 0.108932 0.055836
vt 0.333333 0.500000
vt 0.542154 0.130000
vt 0.333333 0.500000
vt 0.542154 0.130000
vt 0.333333 1.000000
vt 0.042154 0.130000
vt 0.266667 0.500000
vt 0.511315 0.224913
vt 0.266667 0.500000
vt 0.511315 0.224913
vt 0.266667 1.000000
vt 0.011315 0.224913
vt 0.200000 0.500000
vt 0.521746 0.324164
vt 0.200000 0.500000
vt 0.521746 0.324164
vt 0.200000 1.000000
vt 0.021746 0.324164
vt 0.133333 0.500000
vt 0.571645 0.410591
vt 0.133333 0.500000
vt 0.571645 0.410591
vt 0.071645 0.410591
vt 0.133333 1.000000
vt 0.066667 0.500000
vt 0.652383 0.469251
vt 0.066667 0.500000
vt 0.652383 0.469251
vt 0.152383 0.469251
vt 0.066667 1.000000
vt 0.066619 0.309584
vt 0.200000 0.983910
vt 0.106708 0.379020
vt 0.133333 0.983910
vt 0.171574 0.426148
vt 0.066667 0.983910
vt 0.083015 0.153591
vt 0.333333 0.983910
vt 0.209911 0.061396
vt 0.466667 0.983910
vt 0.136664 0.094007
vt 0.400000 0.983910
vt 0.363336 0.094007
vt 0.600000 0.983910
vt 0.441762 0.229845
vt 0.733333 0.983910
vt 0.416985 0.153591
vt 0.666667 0.983910
vt 0.393292 0.379020
vt 0.866667 0.983910
vt 0.328426 0.426148
vt 0.933333 0.983910
vt 0.250000 0.442818
vt 1.000000 0.983910
vt 0.000000 0.983910
vt 0.058238 0.229845
vt 0.266667 0.983910
vt 0.433381 0.309584
vt 0.800000 0.983910
vt 0.290089 0.061396
vt 0.533333 0.983910
s 0
usemtl mugMaterial
f 1/2/1 2/3/1 4/7/1 3/5/1
f 3/5/2 4/7/2 8/12/2 7/11/2
f 7/11/3 8/12/3 6/10/3 5/9/3
f 2/3/1 1/2/1 9/14/1 10/15/1
f 3/6/4 7/11/4 5/9/4 1/1/4
f 8/12/5 4/8/5 2/4/5 6/10/5
f 12/19/6 11/18/6 10/16/6 9/13/6
f 18/28/3 17/27/3 16/26/3 14/22/3
f 6/10/7 2/4/7 10/17/7 11/18/7
f 5/9/3 6/10/3 11/18/3 12/19/3
f 13/21/8 14/22/8 16/26/8 15/23/8
f 20/32/1 19/30/1 13/20/1 15/24/1
f 17/27/9 20/31/9 15/25/9 16/26/9
f 19/29/10 18/28/10 14/22/10 13/21/10
f 1/1/11 5/9/11 18/28/11 19/29/11
f 12/19/9 9/13/9 20/31/9 17/27/9
f 9/14/1 1/2/1 19/30/1 20/32/1
f 5/9/3 12/19/3 17/27/3 18/28/3
f 21/33/12 23/39/12 26/46/12 24/42/12
f 24/42/13 26/46/13 29/52/13 27/48/13
f 27/48/14 29/52/14 32/58/14 30/54/14
f 30/54/15 32/58/15 35/64/15 33/60/15
f 33/60/16 35/64/16 38/70/16 36/66/16
f 36/66/17 38/70/17 41/76/17 39/72/17
f 39/72/18 41/76/18 44/82/18 43/80/18
f 43/80/9 44/82/9 47/88/9 45/84/9
f 45/84/19 47/88/19 50/94/19 48/90/19
f 48/90/20 50/94/20 53/100/20 51/96/20
f 51/96/21 53/100/21 56/106/21 55/104/21
f 55/104/22 56/106/22 59/112/22 58/110/22
f 58/110/23 59/112/23 62/119/23 60/114/23
f 67/128/5 62/118/5 59/113/5 56/107/5 53/101/5 50/95/5 47/89/5 44/83/5 41/77/5 38/71/5 74/142/5 72/138/5 80/155/5 70/134/5 71/136/5 69/132/5 78/151/5 66/126/5
f 38/71/5 35/65/5 32/59/5 29/53/5 26/47/5 23/40/5 65/124/5 62/118/5 67/128/5 68/130/5 77/148/5 76/146/5 75/144/5 79/153/5 73/140/5 74/142/5
f 60/114/24 62/119/24 65/125/24 63/120/24
f 63/120/25 65/125/25 23/41/25 21/34/25
f 63/121/8 21/35/8 24/43/8 27/49/8 30/55/8 33/61/8 36/67/8 39/73/8 43/81/8 45/85/8 48/91/8 51/97/8 55/105/8 58/111/8 60/115/8
f 77/149/26 22/36/26 25/44/26 76/147/26
f 76/147/27 25/44/27 28/50/27 75/145/27
f 28/50/28 31/56/28 79/154/28 75/145/28
f 31/56/29 34/62/29 73/141/29 79/154/29
f 34/62/30 37/68/30 74/143/30 73/141/30
f 37/68/31 40/74/31 72/139/31 74/143/31
f 40/74/32 42/78/32 80/156/32 72/139/32
f 42/78/2 46/86/2 70/135/2 80/156/2
f 46/86/33 49/92/33 71/137/33 70/135/33
f 71/137/34 49/92/34 52/98/34 69/133/34
f 69/133/35 52/98/35 54/102/35 78/152/35
f 78/152/36 54/102/36 57/108/36 66/127/36
f 66/127/37 57/108/37 61/116/37 67/129/37
f 67/129/38 61/116/38 64/122/38 68/131/38
f 68/131/39 64/122/39 22/37/39 77/150/39
f 57/109/5 54/103/5 52/99/5 49/93/5 46/87/5 42/79/5 40/75/5 37/69/5 34/63/5 31/57/5 28/51/5 25/45/5 22/38/5 64/123/5 61/117/5
o coffee
v -4.832204 11.457461 -4.471980
v 7.312848 11.457460 2.357012
v -1.340695 11.457460 -7.056721
v 5.407273 11.457460 -5.409423
v -7.189817 11.457461 -1.331334
v 3.842053 11.457460 5.466813
v -7.051380 11.457461 2.782698
v -1.562804 11.457460 7.428877
vn -0.0000 1.0000 -0.0000
vt 0.000000 0.000000
vt 1.000000 0.000000
vt 0.000000 1.000000
vt 1.000000 1.000000
vt 0.000000 0.000000
vt 1.000000 0.000000
vt 0.000000 0.000000
vt 1.000000 0.000000
s 0
usemtl coffeeLiquid
f 81/157/40 82/158/40 84/160/40 83/159/40
f 82/158/40 81/157/40 85/161/40 86/162/40
f 86/162/40 85/161/40 87/163/40 88/164/40
